<svg xmlns="http://www.w3.org/2000/svg" version="1.1" width="1024" height="1024" viewBox="0 0 1024 1024">
<path d="M 789,680 L 791,681 L 793,681 L 795,683 L 795,721 L 794,723 L 790,726 L 824,726 L 825,724 L 826,719 L 826,714 L 825,716 L 823,719 L 819,723 L 817,724 L 805,724 L 803,723 L 801,721 L 802,703 L 816,704 L 817,706 L 818,708 L 817,695 L 817,697 L 813,701 L 803,701 L 801,699 L 802,681 L 815,681 L 818,682 L 821,685 L 822,688 L 824,689 L 824,686 L 822,679 Z" fill="black" stroke="black" stroke-width="0.5"/>
<path d="M 734,679 L 735,681 L 739,682 L 740,685 L 740,721 L 737,724 L 734,726 L 768,725 L 769,722 L 770,717 L 770,715 L 768,715 L 768,717 L 766,720 L 763,723 L 759,724 L 750,724 L 746,722 L 746,683 L 748,681 L 752,680 Z" fill="black" stroke="black" stroke-width="0.5"/>
<path d="M 671,680 L 674,681 L 678,685 L 680,688 L 682,693 L 684,695 L 686,700 L 688,702 L 690,706 L 690,722 L 688,724 L 686,724 L 684,725 L 701,726 L 700,724 L 698,724 L 696,722 L 696,705 L 698,701 L 700,699 L 701,696 L 703,694 L 704,691 L 706,689 L 707,686 L 709,683 L 711,681 L 713,681 L 715,680 L 701,679 L 702,681 L 704,681 L 706,683 L 705,685 L 703,689 L 701,691 L 699,696 L 697,698 L 696,700 L 695,702 L 693,700 L 691,697 L 689,692 L 687,690 L 684,684 L 685,681 L 688,681 L 688,679 Z" fill="black" stroke="black" stroke-width="0.5"/>
<path d="M 613,679 L 612,681 L 611,688 L 611,690 L 613,689 L 614,686 L 618,682 L 620,681 L 628,681 L 630,683 L 630,719 L 628,724 L 626,724 L 624,726 L 642,725 L 640,724 L 638,724 L 636,722 L 637,681 L 644,681 L 647,682 L 650,685 L 652,687 L 654,690 L 654,686 L 652,679 Z" fill="black" stroke="black" stroke-width="0.5"/>
<path d="M 471,680 L 473,681 L 475,681 L 477,683 L 477,721 L 476,723 L 473,724 L 471,725 L 506,726 L 506,724 L 508,719 L 508,714 L 507,716 L 505,719 L 501,723 L 498,724 L 487,724 L 485,723 L 483,721 L 484,703 L 496,703 L 499,706 L 500,708 L 499,695 L 498,699 L 496,701 L 483,700 L 484,681 L 497,681 L 500,682 L 503,685 L 504,688 L 506,689 L 506,686 L 505,681 L 504,679 Z" fill="black" stroke="black" stroke-width="0.5"/>
<path d="M 405,679 L 406,681 L 410,684 L 410,721 L 409,723 L 405,726 L 418,725 L 415,724 L 412,721 L 413,687 L 417,691 L 420,695 L 423,699 L 426,703 L 429,708 L 433,713 L 436,717 L 439,721 L 443,726 L 445,726 L 445,684 L 448,681 L 451,679 L 437,679 L 438,681 L 440,681 L 443,684 L 442,714 L 440,712 L 436,707 L 433,703 L 430,699 L 427,694 L 424,690 L 421,686 L 418,682 L 415,679 Z" fill="black" stroke="black" stroke-width="0.5"/>
<path d="M 366,680 L 368,681 L 370,681 L 372,683 L 372,722 L 370,724 L 368,724 L 366,725 L 383,726 L 382,724 L 380,724 L 378,722 L 378,683 L 380,681 L 383,679 Z" fill="black" stroke="black" stroke-width="0.5"/>
<path d="M 300,680 L 303,681 L 306,684 L 306,686 L 309,691 L 309,693 L 311,696 L 311,698 L 313,701 L 313,703 L 316,708 L 316,710 L 318,713 L 318,715 L 321,720 L 321,722 L 322,724 L 323,726 L 325,726 L 326,723 L 327,721 L 327,719 L 329,716 L 329,714 L 332,709 L 332,707 L 334,704 L 334,702 L 336,699 L 336,697 L 338,694 L 338,692 L 340,689 L 340,687 L 342,683 L 344,681 L 346,681 L 348,680 L 334,679 L 335,681 L 337,681 L 338,685 L 338,687 L 337,690 L 334,695 L 334,697 L 332,700 L 332,702 L 330,705 L 330,707 L 328,710 L 328,712 L 326,716 L 324,714 L 323,712 L 322,709 L 322,707 L 320,704 L 320,702 L 318,699 L 318,697 L 316,694 L 316,692 L 313,687 L 313,685 L 312,683 L 314,681 L 317,679 Z" fill="black" stroke="black" stroke-width="0.5"/>
<path d="M 264,680 L 266,681 L 269,682 L 270,684 L 270,721 L 269,723 L 266,724 L 264,725 L 281,726 L 280,724 L 278,724 L 276,722 L 276,683 L 278,681 L 281,679 Z" fill="black" stroke="black" stroke-width="0.5"/>
<path d="M 196,680 L 198,681 L 201,682 L 202,684 L 202,721 L 201,723 L 196,725 L 219,726 L 226,725 L 229,724 L 233,722 L 236,720 L 238,718 L 240,715 L 242,711 L 243,708 L 243,696 L 242,693 L 240,689 L 234,683 L 230,681 L 227,680 L 220,679 Z" fill="black" stroke="black" stroke-width="0.5"/>
<path d="M 576,678 L 571,679 L 567,681 L 564,684 L 562,688 L 562,693 L 563,696 L 564,698 L 567,701 L 575,705 L 577,705 L 581,707 L 586,712 L 586,719 L 581,724 L 573,724 L 570,723 L 565,718 L 563,713 L 561,712 L 561,715 L 562,722 L 564,724 L 566,725 L 569,726 L 582,726 L 585,725 L 587,724 L 590,721 L 592,717 L 592,709 L 591,707 L 586,702 L 578,698 L 576,698 L 572,696 L 568,692 L 567,690 L 567,687 L 568,685 L 571,682 L 573,681 L 580,681 L 583,682 L 587,686 L 588,689 L 590,690 L 590,685 L 589,681 L 587,681 L 583,679 Z" fill="black" stroke="black" stroke-width="0.5"/>
<path d="M 499,341 L 498,343 L 498,345 L 496,350 L 495,356 L 495,371 L 496,377 L 497,381 L 498,384 L 499,387 L 503,395 L 505,398 L 507,401 L 521,415 L 525,418 L 530,421 L 530,414 L 529,412 L 524,409 L 515,400 L 511,395 L 509,392 L 504,382 L 503,379 L 502,375 L 501,369 L 501,358 L 502,352 L 503,348 L 504,346 Z" fill="black" stroke="black" stroke-width="0.5"/>
<path d="M 483,331 L 479,336 L 477,339 L 475,342 L 473,345 L 470,351 L 470,353 L 468,356 L 467,359 L 466,363 L 465,368 L 464,377 L 464,384 L 465,393 L 466,398 L 467,402 L 468,405 L 469,408 L 471,411 L 471,413 L 474,419 L 476,422 L 478,425 L 481,429 L 496,444 L 501,448 L 504,450 L 507,452 L 510,454 L 513,455 L 515,457 L 518,458 L 520,460 L 544,472 L 546,472 L 556,477 L 558,478 L 559,476 L 558,471 L 548,466 L 546,466 L 528,457 L 526,455 L 519,452 L 516,450 L 514,448 L 511,447 L 508,445 L 504,442 L 500,439 L 487,426 L 484,422 L 481,418 L 475,406 L 474,403 L 473,400 L 472,396 L 471,392 L 471,370 L 472,366 L 473,362 L 474,359 L 475,356 L 480,346 L 482,343 L 484,340 L 489,335 L 490,332 L 488,330 Z" fill="black" stroke="black" stroke-width="0.5"/>
<path d="M 347,300 L 347,306 L 349,306 L 352,307 L 356,309 L 359,312 L 362,318 L 363,324 L 363,545 L 362,550 L 359,556 L 356,559 L 352,561 L 350,561 L 346,562 L 346,568 L 448,567 L 458,568 L 463,579 L 466,583 L 469,587 L 481,599 L 486,603 L 490,606 L 493,608 L 496,609 L 498,611 L 510,617 L 512,617 L 515,619 L 518,620 L 521,621 L 525,622 L 528,623 L 532,624 L 536,625 L 542,626 L 550,627 L 581,627 L 589,626 L 595,625 L 599,624 L 603,623 L 607,622 L 610,621 L 613,620 L 616,619 L 619,617 L 621,617 L 624,615 L 626,615 L 630,613 L 632,611 L 635,610 L 638,608 L 641,606 L 645,603 L 652,597 L 656,593 L 661,587 L 664,583 L 665,580 L 667,578 L 671,570 L 672,567 L 673,564 L 674,561 L 675,557 L 676,552 L 677,542 L 677,534 L 676,526 L 675,521 L 674,517 L 673,514 L 672,511 L 671,508 L 667,500 L 665,498 L 664,495 L 661,491 L 656,485 L 649,478 L 643,473 L 638,469 L 635,467 L 632,465 L 629,463 L 626,462 L 624,460 L 621,459 L 619,457 L 595,445 L 593,445 L 586,441 L 584,441 L 577,437 L 575,437 L 566,432 L 564,432 L 556,428 L 554,427 L 555,435 L 557,435 L 566,440 L 568,440 L 575,444 L 577,444 L 586,449 L 588,449 L 601,456 L 603,456 L 611,460 L 613,462 L 618,464 L 620,466 L 623,467 L 625,469 L 628,470 L 632,473 L 635,475 L 639,478 L 656,495 L 658,498 L 660,501 L 661,504 L 663,506 L 664,508 L 664,510 L 666,513 L 667,516 L 668,519 L 669,522 L 670,528 L 670,549 L 669,555 L 668,559 L 667,562 L 666,565 L 660,577 L 658,580 L 656,583 L 642,597 L 638,600 L 634,603 L 631,604 L 629,606 L 616,612 L 613,612 L 615,610 L 622,605 L 626,601 L 630,596 L 633,592 L 634,589 L 636,587 L 638,583 L 638,581 L 640,578 L 641,575 L 642,571 L 643,565 L 643,546 L 642,540 L 641,537 L 640,534 L 639,531 L 635,523 L 633,520 L 631,517 L 628,513 L 620,505 L 615,501 L 611,498 L 608,496 L 605,494 L 602,493 L 600,491 L 595,489 L 593,487 L 583,482 L 581,482 L 580,484 L 579,487 L 581,489 L 583,490 L 585,490 L 587,492 L 594,495 L 596,497 L 599,498 L 602,500 L 605,502 L 608,504 L 611,506 L 626,521 L 628,524 L 630,527 L 633,533 L 634,536 L 635,539 L 636,543 L 637,549 L 637,562 L 636,569 L 635,573 L 634,576 L 632,579 L 632,581 L 630,583 L 629,586 L 627,589 L 625,592 L 611,606 L 608,608 L 605,609 L 603,611 L 595,615 L 592,616 L 589,617 L 586,618 L 583,619 L 579,620 L 571,621 L 554,621 L 545,620 L 539,619 L 534,618 L 530,617 L 526,616 L 523,615 L 520,614 L 517,613 L 512,610 L 510,610 L 506,608 L 504,606 L 499,604 L 496,602 L 493,600 L 490,598 L 485,594 L 475,584 L 471,579 L 469,576 L 467,573 L 465,569 L 464,567 L 467,565 L 472,565 L 476,564 L 480,563 L 484,562 L 487,561 L 490,560 L 493,559 L 496,558 L 499,556 L 501,556 L 508,552 L 510,552 L 512,551 L 514,549 L 517,548 L 519,546 L 522,545 L 525,543 L 529,540 L 533,537 L 541,529 L 543,527 L 552,518 L 555,514 L 558,510 L 560,507 L 561,504 L 563,502 L 570,488 L 570,486 L 572,483 L 572,481 L 574,478 L 575,474 L 576,471 L 577,467 L 578,463 L 579,458 L 578,454 L 575,453 L 573,452 L 573,457 L 572,461 L 571,466 L 570,470 L 569,473 L 568,476 L 567,479 L 565,482 L 565,484 L 558,498 L 556,500 L 555,503 L 553,506 L 550,510 L 547,514 L 530,531 L 525,535 L 522,537 L 518,540 L 515,542 L 510,544 L 508,546 L 502,549 L 500,549 L 495,552 L 492,553 L 489,552 L 491,551 L 493,549 L 497,547 L 501,544 L 513,532 L 516,528 L 519,524 L 521,521 L 523,518 L 524,515 L 526,513 L 532,501 L 532,499 L 534,496 L 534,494 L 536,491 L 537,488 L 538,485 L 539,481 L 539,478 L 537,477 L 534,476 L 533,480 L 532,483 L 531,486 L 530,489 L 529,492 L 526,497 L 526,499 L 521,509 L 519,511 L 518,514 L 516,517 L 514,520 L 511,524 L 507,529 L 497,539 L 492,543 L 489,545 L 486,547 L 483,549 L 473,554 L 471,554 L 468,556 L 465,557 L 462,558 L 458,559 L 454,560 L 449,561 L 441,562 L 403,562 L 401,560 L 401,308 L 403,306 L 443,306 L 453,307 L 458,308 L 462,309 L 466,310 L 469,311 L 472,312 L 486,319 L 489,321 L 492,323 L 496,326 L 509,339 L 513,344 L 515,347 L 517,350 L 519,353 L 521,358 L 523,360 L 526,366 L 526,368 L 529,373 L 530,376 L 531,379 L 532,382 L 533,386 L 534,389 L 535,393 L 536,398 L 537,403 L 538,410 L 539,419 L 538,448 L 539,453 L 542,454 L 544,455 L 544,451 L 545,415 L 544,407 L 543,400 L 542,396 L 541,391 L 540,387 L 539,383 L 538,380 L 537,377 L 536,374 L 534,371 L 534,369 L 532,366 L 532,364 L 527,354 L 525,352 L 524,349 L 522,347 L 521,344 L 518,340 L 515,336 L 509,330 L 507,328 L 500,321 L 495,318 L 493,316 L 491,315 L 494,314 L 498,315 L 503,318 L 505,318 L 513,322 L 515,324 L 518,325 L 521,327 L 525,330 L 528,332 L 535,338 L 545,348 L 549,353 L 551,356 L 554,360 L 556,363 L 557,366 L 559,368 L 565,380 L 566,383 L 566,385 L 568,388 L 569,392 L 570,395 L 571,399 L 572,404 L 573,409 L 574,416 L 574,427 L 576,428 L 579,429 L 581,429 L 581,425 L 580,414 L 579,406 L 578,402 L 577,397 L 576,393 L 575,390 L 574,387 L 573,384 L 572,381 L 570,378 L 570,376 L 564,364 L 562,362 L 561,359 L 559,356 L 557,353 L 554,349 L 549,343 L 538,332 L 532,327 L 528,324 L 525,322 L 522,320 L 504,311 L 502,311 L 499,309 L 496,308 L 493,307 L 490,306 L 486,305 L 483,304 L 478,303 L 473,302 L 466,301 L 456,300 Z" fill="black" stroke="black" stroke-width="0.5"/>
<path d="M 556,297 L 548,298 L 542,299 L 538,300 L 534,301 L 531,302 L 528,303 L 525,304 L 522,305 L 519,307 L 517,308 L 519,309 L 523,311 L 525,313 L 527,314 L 530,314 L 532,313 L 534,311 L 536,310 L 538,310 L 541,308 L 544,307 L 547,306 L 551,305 L 556,304 L 563,303 L 576,303 L 585,304 L 591,305 L 596,306 L 599,307 L 603,308 L 606,309 L 609,310 L 612,312 L 614,312 L 624,317 L 627,319 L 630,321 L 633,323 L 636,325 L 642,330 L 644,332 L 650,339 L 653,343 L 655,346 L 659,354 L 660,357 L 661,360 L 661,370 L 658,376 L 655,379 L 651,381 L 642,381 L 638,379 L 634,375 L 632,370 L 631,368 L 625,368 L 625,370 L 626,374 L 628,378 L 631,382 L 635,385 L 637,386 L 640,387 L 653,387 L 659,384 L 663,380 L 666,374 L 667,371 L 667,359 L 666,355 L 665,352 L 663,349 L 663,347 L 661,345 L 660,342 L 658,339 L 656,336 L 652,331 L 645,324 L 640,320 L 636,317 L 633,315 L 630,313 L 616,306 L 613,305 L 611,305 L 608,303 L 605,302 L 601,301 L 597,300 L 593,299 L 587,298 L 580,297 Z" fill="black" stroke="black" stroke-width="0.5"/>
</svg>